<svg width="58" height="75" viewBox="0 0 58 75" fill="none" xmlns="http://www.w3.org/2000/svg">
<path fill-rule="evenodd" clip-rule="evenodd" d="M49.7606 0.722161C49.9627 0.911454 49.9865 0.948985 50.1044 1.26722C50.1945 1.51042 50.2347 1.4989 50.3997 1.18309C50.6549 0.694763 50.8349 0.69229 51.7083 1.16506C52.1158 1.38571 52.7001 1.62828 53.0065 1.70413C54.1137 1.97822 54.3187 2.09902 54.2971 2.46549C54.2862 2.65023 54.3342 2.75127 54.4038 2.68973C54.5862 2.52837 54.895 2.93262 54.9498 3.40475C54.9915 3.76274 55.0324 3.80897 55.3005 3.80128C55.6196 3.79203 55.9694 4.08862 55.9539 4.35505C55.9488 4.44151 56.0475 4.66524 56.1733 4.85246C56.484 5.31465 56.5576 6.31632 56.2884 6.41644C56.1215 6.47847 56.1619 6.56337 56.4636 6.78396C56.7046 6.9602 56.8081 7.11288 56.7322 7.18005C56.6642 7.24024 56.703 7.33879 56.8186 7.3992C56.934 7.45959 57.0031 7.5944 56.9718 7.69877C56.9406 7.80303 57.0015 7.9862 57.1073 8.10581C57.2131 8.22542 57.2491 8.42076 57.1872 8.54017C57.1253 8.65935 57.2095 9.0271 57.3741 9.35749C57.5742 9.75882 57.6167 10.0863 57.5021 10.3446C57.408 10.5572 57.4245 10.9662 57.5389 11.2536C57.6533 11.5409 57.6741 11.8403 57.5853 11.9189C57.4299 12.0563 57.313 12.7973 57.443 12.8221C57.6498 12.8614 57.9009 13.33 57.7748 13.4415C57.5646 13.6274 57.5981 14.3988 57.8146 14.362C58.0389 14.324 57.9366 16.4677 57.7045 16.673C57.5012 16.8528 57.466 17.5414 57.6495 17.7489C57.8624 17.9895 57.7031 19.2062 57.4463 19.3018C57.3159 19.3503 57.2615 19.4489 57.3254 19.5211C57.3892 19.5933 57.3618 19.7227 57.2646 19.8088C57.1673 19.8948 57.1769 20.0661 57.286 20.1895C57.4101 20.3298 57.3986 20.5392 57.2554 20.7489C57.1294 20.9332 57.0887 21.1545 57.1648 21.2406C57.2409 21.3266 57.1528 21.6562 56.9689 21.9729C56.7848 22.2895 56.6385 22.6719 56.6436 22.8226C56.6488 22.9731 56.5798 23.1611 56.4905 23.2401C56.4012 23.3191 56.3988 23.4638 56.4853 23.5616C56.5989 23.69 56.5116 23.8553 56.1709 24.1566C55.9115 24.3861 55.7449 24.6256 55.8008 24.6887C55.8566 24.7518 55.7955 24.8432 55.6651 24.8918C55.5346 24.9403 55.4771 25.0357 55.5374 25.1038C55.5977 25.172 55.5297 25.3356 55.3863 25.4677C55.2429 25.5997 55.0076 25.8147 54.8633 25.9458C54.6857 26.1069 54.6645 26.2556 54.7976 26.4062C54.9503 26.5788 54.8914 26.7513 54.5343 27.1778C54.2804 27.481 54.1313 27.7915 54.2013 27.8707C54.3675 28.0585 53.0712 29.7585 52.8567 29.6338C52.6321 29.5033 52.348 29.8151 52.5174 30.0066C52.6827 30.1935 52.541 30.5366 52.1588 30.8746C52.0163 31.0006 51.8597 31.2693 51.8109 31.4718C51.7037 31.9145 50.4319 33.256 49.938 33.4471C49.6731 33.5496 49.6242 33.6269 49.7404 33.7584C49.925 33.967 49.8742 34.0248 49.4105 34.1336C49.1365 34.1981 49.0501 34.3024 49.0166 34.6094C48.993 34.8258 48.8797 35.0363 48.7647 35.0771C48.6073 35.1331 48.59 35.1167 48.6946 35.0117C48.7711 34.935 48.763 34.7919 48.6765 34.6941C48.5002 34.4949 48.2667 34.6227 48.3692 34.8624C48.4377 35.0228 48.1982 35.4181 47.6574 36.0371C47.082 36.6957 45.1113 38.4378 44.9013 38.4734C44.7873 38.4928 44.7447 38.566 44.8067 38.6361C44.9409 38.7878 44.217 39.3879 43.8685 39.4139C43.7343 39.424 43.5688 39.5395 43.5008 39.6707C43.32 40.0193 42.7023 40.2967 42.533 40.1052C42.4526 40.0144 42.3339 39.9872 42.2691 40.0445C42.2042 40.1019 42.2169 40.2232 42.2972 40.314C42.5117 40.5565 42.3326 40.7933 41.5223 41.3389C41.1238 41.6072 40.7582 41.9017 40.7095 41.9933C40.661 42.0851 40.4587 42.1497 40.2602 42.137C40.0615 42.1243 39.8712 42.2068 39.8372 42.3203C39.8002 42.4439 39.7616 42.447 39.7409 42.328C39.7218 42.2188 39.6225 42.1436 39.5203 42.1609C39.4182 42.1783 39.3847 42.249 39.4457 42.318C39.5696 42.4581 38.9787 43.0404 38.7285 43.0244C38.4525 43.0068 36.3687 44.2667 36.3014 44.4921C36.2659 44.6103 36.1509 44.7389 36.0459 44.7779C35.9407 44.817 35.9112 45.1372 35.9802 45.4895C36.0585 45.8895 36.0156 46.2095 35.8658 46.342C35.7338 46.4587 35.6939 46.631 35.777 46.725C35.9755 46.9494 35.8633 47.3068 35.6178 47.2322C35.3555 47.1524 34.8144 48.5393 35.058 48.6667C35.2907 48.7884 35.1214 49.1183 34.7234 49.3191C34.5149 49.4243 34.4168 49.6264 34.4207 49.9432C34.4269 50.4488 34.0536 50.7173 33.7779 50.4056C33.6427 50.2528 33.6082 50.2725 33.5856 50.515C33.5706 50.6776 33.6429 50.8549 33.7466 50.9092C33.8525 50.9645 33.8461 51.1006 33.732 51.2194C33.3673 51.5999 33.32 51.6664 33.2538 51.8923C33.2178 52.0152 33.1132 52.1283 33.0211 52.144C32.929 52.1596 32.7642 52.3438 32.6547 52.5532C32.5236 52.8042 32.3947 52.9153 32.2762 52.8792C32.1607 52.8439 32.0795 52.9372 32.0485 53.1403C32.0178 53.3413 31.6159 53.8063 30.9429 54.4191C30.0909 55.1951 29.824 55.3699 29.5691 55.3186C29.2798 55.2603 29.2681 55.2729 29.4324 55.4656C29.6519 55.723 29.338 56.0414 29.0259 55.8781C28.7301 55.7234 28.4394 55.9902 28.5585 56.3071C28.6633 56.5858 28.0577 56.9928 27.7 56.8839C27.5603 56.8415 27.485 56.9517 27.453 57.2456C27.4164 57.5818 27.2617 57.7762 26.6963 58.1968C26.3052 58.4875 25.9264 58.7215 25.8542 58.7169C25.7821 58.7123 25.677 58.8295 25.6207 58.9774C25.5603 59.1362 25.2194 59.395 24.7887 59.6095C24.3874 59.8094 23.7801 60.2154 23.439 60.512C22.9092 60.9726 22.8044 61.0124 22.7192 60.7856C22.6435 60.584 22.588 60.5809 22.4885 60.7729C22.3026 61.1313 19.1825 63.1318 17.9748 63.667C17.6846 63.7956 17.2936 64.0367 17.1057 64.2029C16.9178 64.369 16.6277 64.4748 16.4609 64.4379C16.2633 64.3942 15.9637 64.5371 15.6014 64.8478C15.2326 65.1641 14.9722 65.2866 14.8283 65.2113C14.7089 65.1487 14.5627 65.1912 14.5035 65.3053C14.4443 65.4195 14.0403 65.7371 13.6057 66.011C13.171 66.285 12.6647 66.6134 12.4805 66.7407C12.2964 66.868 12.0357 66.9908 11.9014 67.0137C11.7671 67.0365 11.5292 67.1346 11.3729 67.2317C10.4319 67.8155 10.185 67.9314 10.0961 67.8308C10.0416 67.7692 9.97476 67.7932 9.94751 67.8841C9.92037 67.9751 9.81684 68.0246 9.71743 67.9944C9.61813 67.9641 9.27469 68.1714 8.95416 68.4549C8.4953 68.8607 8.33531 68.9293 8.20142 68.778C8.06207 68.6204 8.02288 68.6405 7.98489 68.8896C7.94693 69.1383 7.90803 69.1592 7.77099 69.0042C7.63888 68.8549 7.53882 68.9005 7.29643 69.2205C7.03706 69.5629 6.97383 69.5851 6.89048 69.363C6.82608 69.1916 6.73127 69.1533 6.61842 69.2531C6.52313 69.3374 6.51606 69.4865 6.60257 69.5843C6.72241 69.7198 6.50771 69.8211 5.70467 70.0087C4.7563 70.2302 4.63042 70.2185 4.46051 69.8941C4.35654 69.6955 4.07888 69.1953 3.84338 68.7824C3.24687 67.7366 3.40556 67.5034 5.99199 65.6265C6.07993 65.5627 6.19131 65.5548 6.23943 65.6092C6.28745 65.6635 6.42972 65.6169 6.55566 65.5055C6.68161 65.3941 6.85387 65.3241 6.93845 65.3499C7.02303 65.3757 7.20659 65.2484 7.34647 65.0672C7.48625 64.8859 7.76976 64.696 7.97657 64.6451C8.36976 64.5485 9.40756 63.9976 10.2548 63.4358C10.528 63.2547 10.8105 63.173 10.8825 63.2544C10.9671 63.3501 11.217 63.2322 11.5869 62.9221C12.717 61.9752 12.9119 61.8738 13.2767 62.0434C13.6368 62.2108 13.8926 62.1426 13.7041 61.9295C13.5744 61.7828 14.5365 60.9115 14.8187 60.9202C15.0168 60.9262 15.7401 60.5303 17.5377 59.4318C18.1599 59.0516 18.4359 58.961 18.5584 59.0969C18.6798 59.2316 18.7162 59.2202 18.6895 59.0558C18.6617 58.8842 18.8478 58.7055 19.4464 58.3286C19.8829 58.0537 20.3107 57.8472 20.3969 57.8699C20.4832 57.8924 20.8832 57.6438 21.2859 57.3175C21.6884 56.991 22.1018 56.7099 22.2044 56.6925C22.4092 56.6579 24.3518 55.4922 24.5757 55.2695C24.8984 54.9484 25.2868 54.6289 25.9716 54.121C26.3713 53.8245 26.6866 53.5152 26.6723 53.4334C26.6581 53.3518 26.9243 53.0886 27.264 52.8488C28.169 52.21 28.4625 51.9442 28.6672 51.5783C28.8064 51.3295 28.89 51.2955 29.0149 51.4367C29.1053 51.5388 29.2322 51.5755 29.2971 51.5181C29.362 51.4607 29.3488 51.3389 29.2677 51.2473C29.1623 51.1281 29.2596 50.9698 29.6093 50.6912C29.8783 50.4771 30.1669 50.3062 30.2505 50.3114C30.3343 50.3168 30.4004 50.1292 30.3974 49.8944C30.3933 49.5544 30.4894 49.4097 30.869 49.1831C31.1595 49.0099 31.3324 48.8208 31.3111 48.6993C31.292 48.5895 31.4014 48.3892 31.5544 48.2539C31.7072 48.1187 31.8004 47.9332 31.7614 47.842C31.7223 47.7506 31.9414 47.4537 32.2483 47.1823C32.6752 46.8047 32.7877 46.6111 32.7272 46.3585C32.6655 46.1003 32.5727 46.0407 32.3019 46.0854C32.1115 46.1169 31.9001 46.0334 31.8325 45.9001C31.7647 45.7667 31.5546 45.662 31.3655 45.6675C31.0693 45.6761 31.0258 45.7207 31.0515 45.99C31.0786 46.2733 31.0337 46.3142 30.5739 46.4266C30.2949 46.4946 29.9307 46.5417 29.7647 46.5311C29.5989 46.5204 29.37 46.5941 29.2562 46.6948C29.1424 46.7954 28.8068 46.8546 28.5102 46.8264C28.2137 46.7981 27.8982 46.8395 27.8092 46.9182C27.7202 46.997 27.4063 47.0369 27.1119 47.0068C26.8174 46.9767 26.5163 47.0054 26.4426 47.0706C26.2482 47.2425 26.1648 47.0873 26.2417 46.6973C26.3039 46.3812 26.2943 46.3694 26.1044 46.5313C25.8784 46.7238 24.7005 46.7057 24.612 46.5084C24.5811 46.4398 24.5313 46.4661 24.5012 46.5669C24.4446 46.756 24.3299 46.7112 23.7149 46.2611C23.429 46.0517 23.398 45.9598 23.5626 45.8116C23.6899 45.6969 23.6899 45.6358 23.5629 45.6529C23.3026 45.6877 22.3579 44.8727 22.0536 44.3508C21.9274 44.1341 21.8314 43.6585 21.8404 43.2939C21.8493 42.9292 21.8347 42.6059 21.8079 42.5756C21.781 42.5452 21.7683 42.3621 21.7796 42.1687C21.791 41.9754 21.6872 41.7412 21.5491 41.6483C21.411 41.5553 21.3498 41.4334 21.4133 41.3773C21.4767 41.3212 21.5382 41.1115 21.55 40.9112C21.564 40.6725 21.6277 40.5798 21.7348 40.642C21.9883 40.7894 22.1844 40.5277 22.1406 40.1002C22.115 39.8507 22.2362 39.593 22.4807 39.3768C22.6895 39.1921 22.846 38.9586 22.8284 38.8579C22.8109 38.7573 22.8495 38.628 22.9144 38.5706C22.9792 38.5133 23.0432 38.5281 23.0563 38.6035C23.0695 38.679 23.2107 38.6388 23.3698 38.5143C23.5559 38.3685 23.5918 38.2524 23.4704 38.1889C23.364 38.1332 23.3725 37.9539 23.49 37.7778C23.6047 37.6059 23.7544 37.4972 23.8229 37.5361C23.8913 37.5751 24.2541 37.2881 24.6289 36.8984C25.0978 36.411 25.541 36.0938 26.0489 35.8818C26.8992 35.5272 27.8078 35.2781 28.028 35.3396C28.1114 35.3629 28.3167 35.2869 28.4842 35.1707C28.8394 34.9243 30.135 34.8806 30.3364 35.1084C30.4124 35.1942 30.5806 35.1705 30.7103 35.0557C30.8413 34.9399 31.0161 34.9262 31.1034 35.025C31.1899 35.1228 31.3084 35.1605 31.3669 35.1088C31.4254 35.0571 31.6309 35.2036 31.8237 35.4344C32.0819 35.7435 32.3269 35.8579 32.7543 35.8688C33.0733 35.8772 33.4105 35.97 33.5036 36.0751C33.5966 36.1803 33.8271 36.3239 34.0157 36.3944C34.2637 36.4871 34.3546 36.5898 34.3443 36.7659C34.3364 36.8998 34.411 37.1011 34.51 37.213C34.609 37.3249 34.6464 37.4919 34.5932 37.5842C34.5212 37.7092 34.613 37.8173 34.9539 38.0093C35.3125 38.2113 35.4021 38.3264 35.3691 38.5429C35.3459 38.6947 35.4405 39.0211 35.5792 39.268C35.7179 39.5151 35.8121 39.785 35.7888 39.8679C35.6485 40.3654 37.2268 40.4673 37.481 39.9772C37.5409 39.8619 37.7935 39.7593 38.0426 39.749C38.5016 39.7302 38.9148 39.3414 38.7153 39.1159C38.6555 39.0482 38.7736 38.9945 38.9777 38.9967C39.1817 38.9988 39.4821 38.8837 39.645 38.7412C39.8077 38.5984 40.7478 37.7737 41.7338 36.9084C43.4763 35.379 44.3327 34.8302 44.3975 35.2012C44.4158 35.3053 44.4806 35.2835 44.5498 35.15C44.6161 35.022 44.6046 34.8431 44.5243 34.7523C44.4439 34.6615 44.4296 34.5417 44.4925 34.4861C44.5552 34.4306 44.6469 34.4922 44.6961 34.6229C44.8079 34.9207 45.0744 34.6938 45.1678 34.2214C45.2107 34.0045 45.5947 33.541 46.1843 32.9943C48.059 31.2568 48.3011 30.9997 48.3471 30.6983C48.4003 30.3498 49.6357 29.1512 50.3269 28.7776C50.6966 28.5777 50.7564 28.4909 50.6255 28.3429C50.5318 28.2369 50.5742 28.0057 50.7248 27.8017C50.8694 27.6059 51.0587 27.2583 51.1453 27.0296C51.232 26.8008 51.5226 26.3542 51.7911 26.0369C52.2082 25.5441 52.305 25.4891 52.4558 25.6596C52.6008 25.8235 52.6407 25.8049 52.6787 25.5552C52.7042 25.3879 52.6541 25.1709 52.5673 25.0727C52.4429 24.9321 52.5192 24.8247 52.9265 24.5665C53.3737 24.2832 53.4303 24.1845 53.3467 23.835C53.2816 23.563 53.3965 23.2144 53.6981 22.768C53.9446 22.4036 54.1035 22.0569 54.0512 21.9977C53.9987 21.9384 54.101 21.7601 54.2785 21.6012C54.4693 21.4301 54.6082 21.0871 54.6187 20.7604C54.6325 20.3383 54.6917 20.2247 54.871 20.277C55.0464 20.3281 55.0595 20.2926 54.9237 20.1362C54.8237 20.0212 54.795 19.8802 54.8599 19.8228C54.9247 19.7655 54.9018 19.6326 54.8089 19.5276C54.6718 19.3725 54.733 19.2809 55.1334 19.0421C55.5784 18.7768 55.5998 18.7315 55.3514 18.5823C55.162 18.4686 55.1219 18.3365 55.223 18.1607C55.4234 17.8123 55.5805 17.229 55.542 16.9759C55.5247 16.8612 55.6114 16.5596 55.7348 16.3055C55.8581 16.0515 55.8981 15.8251 55.8237 15.8024C55.749 15.7797 55.8131 15.5963 55.9656 15.3948C56.159 15.1395 56.185 14.9161 56.0514 14.6593C55.9459 14.4564 55.9413 14.2181 56.0412 14.1297C56.1411 14.0414 56.1489 13.9466 56.0584 13.9191C55.8449 13.8541 55.5906 13.0316 55.7742 13.0004C55.8513 12.9873 55.8432 12.7538 55.7562 12.4815C55.6692 12.2092 55.638 11.951 55.687 11.9076C55.7361 11.8642 55.7054 11.7487 55.6189 11.6509C55.5324 11.5531 55.5331 11.4099 55.6205 11.3326C55.9102 11.0763 55.8803 9.80781 55.5765 9.46427C55.5157 9.39552 55.4438 9.09354 55.4167 8.79319C55.3895 8.49272 55.3102 8.15973 55.2404 8.05292C55.1706 7.94624 55.0842 7.58785 55.0484 7.25675C55.0123 6.92563 54.9314 6.59622 54.8683 6.52486C54.805 6.45338 54.7656 6.18568 54.7806 5.93007C54.798 5.63435 54.6558 5.26804 54.3903 4.92393C53.8898 4.27536 53.8268 4.0236 54.1363 3.90861C54.3387 3.8333 54.3087 3.79962 53.896 3.63937C53.4584 3.4697 53.4356 3.43513 53.5808 3.16324C53.812 2.73076 53.5449 2.53519 53.2484 2.91977C53.0256 3.20851 53.0002 3.20644 53.0006 2.89934C53.001 2.60533 52.9586 2.55621 52.7 2.55098C52.5259 2.54735 52.4449 2.59686 52.5079 2.6681C52.5678 2.73579 52.5311 2.8671 52.4262 2.95993C52.2957 3.07529 52.1904 3.03937 52.0924 2.84633C52.0095 2.68322 51.8564 2.5985 51.7292 2.64585C51.6084 2.69081 51.4455 2.65512 51.3673 2.56668C51.289 2.47813 50.9919 2.39819 50.7069 2.38892C50.1501 2.37067 49.6458 1.86411 49.4753 1.15197C49.3786 0.748187 49.5357 0.511393 49.7606 0.722161ZM53.1798 3.68419C53.2963 3.8273 53.2932 3.88012 53.172 3.81891C53.0623 3.76346 52.976 3.65741 52.9804 3.58342C52.9847 3.50944 53.0744 3.55476 53.1798 3.68419ZM25.3097 40.7127C24.9848 41.1296 24.698 41.6073 24.6723 41.7743C24.6466 41.9413 24.5419 42.2143 24.4397 42.3811C24.1354 42.8778 24.2139 43.1899 24.6964 43.4018C24.9298 43.5043 25.1936 43.5245 25.2827 43.4465C25.384 43.358 25.4979 43.41 25.5871 43.5857C25.6893 43.7873 25.7614 43.8053 25.842 43.6497C25.9128 43.5133 26.0614 43.505 26.2433 43.6275C26.4024 43.7344 26.6058 43.7569 26.6956 43.6775C26.7852 43.5983 26.9058 43.5866 26.9635 43.6518C27.0212 43.717 27.148 43.7 27.2452 43.6139C27.3425 43.5279 27.4603 43.5006 27.507 43.5534C27.5536 43.6061 27.9982 43.5218 28.4951 43.366C28.992 43.2103 29.4293 43.1166 29.467 43.1578C29.5045 43.199 29.7055 43.1448 29.9135 43.0373C30.1214 42.93 30.4201 42.8502 30.5774 42.8602C30.7346 42.8703 31.2595 42.7014 31.7437 42.4846C32.2279 42.2681 32.6954 42.1103 32.7827 42.1341C33.2117 42.2508 33.5927 41.7769 33.5941 41.1248C33.5949 40.7573 33.5383 40.3918 33.4683 40.3127C33.3984 40.2336 33.3936 40.0678 33.4577 39.9442C33.5218 39.8206 33.5035 39.6395 33.417 39.5417C33.3147 39.426 33.3524 39.3233 33.5248 39.2478C33.6731 39.183 33.4631 39.1202 33.0485 39.1056C32.3857 39.0822 32.2895 39.0336 32.1423 38.6483C32.0045 38.2879 31.9482 38.2471 31.7995 38.3991C31.7017 38.4992 31.5435 38.5074 31.4483 38.4174C31.3531 38.3273 31.2102 38.1923 31.1305 38.1174C31.051 38.0426 30.918 38.0412 30.8351 38.1146C30.5553 38.3621 29.8944 38.1501 29.5735 37.7097C29.4034 37.4764 29.3474 37.4258 29.4489 37.5976C29.6616 37.9571 29.2266 38.4693 28.8679 38.2815C28.7487 38.2192 28.4304 38.2999 28.1608 38.4606C27.891 38.6214 27.6108 38.7349 27.5381 38.7128C27.3296 38.6494 25.9602 39.8786 25.3097 40.7127ZM10.4826 56.4727C10.8782 56.7443 10.7959 57.6272 10.374 57.6397C10.1846 57.6454 10.1049 57.721 10.0941 57.9055C10.0857 58.0474 9.9156 58.308 9.71607 58.4845C9.51642 58.6611 9.31233 58.9705 9.2625 59.1717C9.21266 59.3732 9.04982 59.6943 8.90077 59.8851C8.68415 60.1623 8.59031 60.1876 8.43439 60.0113C8.18055 59.7243 7.94036 59.9382 8.11987 60.2916C8.224 60.4968 8.12447 60.7143 7.71778 61.1706C7.39213 61.5358 7.1049 61.7547 6.99528 61.7213C6.88137 61.6867 6.81718 61.784 6.82384 61.9812C6.83123 62.1982 6.67114 62.4171 6.30905 62.685C6.01978 62.8988 5.63927 63.3243 5.46297 63.6306C5.2868 63.9369 5.05151 64.2215 4.94008 64.2628C4.82863 64.3043 4.75272 64.4262 4.77156 64.5338C4.82913 64.8636 4.47811 65.0437 4.25939 64.7964C3.99643 64.4991 3.81575 64.8193 3.97125 65.3073C4.13043 65.8072 3.48811 66.733 3.0496 66.636C2.81626 66.5844 2.73956 66.6302 2.72796 66.8279C2.71957 66.9707 2.77742 67.1607 2.85658 67.2502C2.95137 67.3573 2.87884 67.4977 2.64353 67.6628C2.39202 67.839 2.34031 67.9523 2.46883 68.0468C2.73216 68.2406 2.57943 68.6181 2.13577 68.8698C1.78463 69.069 1.77879 69.1151 2.06858 69.405C2.24295 69.5793 2.46158 69.75 2.55439 69.7841C2.64731 69.8181 2.88744 70.0188 3.08817 70.2298C3.28878 70.4407 3.55358 70.5963 3.67678 70.5754C3.79977 70.5545 3.98119 70.599 4.07985 70.6744C4.74033 71.1788 5.0347 71.2877 5.24166 71.1047C5.4235 70.9439 5.50359 70.9757 5.65611 71.2689C5.77084 71.4896 6.15486 71.7933 6.63357 72.0418C7.06714 72.267 7.49801 72.5265 7.59088 72.6186C7.68375 72.7108 7.98552 72.9795 8.26134 73.2158C8.86697 73.7346 8.83374 73.9447 8.11573 74.135C7.4604 74.309 6.87444 74.0628 7.05423 73.6891C7.15214 73.4859 7.1278 73.4776 6.92477 73.6452C6.6282 73.8899 5.58573 73.9888 5.32575 73.7969C5.22513 73.7225 4.84922 73.538 4.49024 73.3869C4.13149 73.2358 3.72871 72.9888 3.59534 72.8381C3.46197 72.6873 3.31874 72.6054 3.27686 72.6562C3.07256 72.9043 2.86748 72.9657 2.73673 72.8178C2.65736 72.7281 2.4481 72.6588 2.27181 72.6639C2.06339 72.6699 1.88767 72.5511 1.76993 72.3246C1.65399 72.1015 1.56889 72.0426 1.53345 72.1608C1.50311 72.2624 1.42821 72.289 1.36719 72.22C1.30617 72.151 1.30757 72.049 1.37042 71.9934C1.43316 71.9379 1.38239 71.8389 1.25754 71.7735C1.13256 71.7083 1.0258 71.5175 1.02011 71.3497C1.01286 71.1378 0.969266 71.0805 0.877288 71.1618C0.804522 71.2262 0.674195 71.1989 0.587692 71.1011C0.501189 71.0033 0.510017 70.8528 0.607311 70.7668C0.705422 70.68 0.691092 70.5051 0.575232 70.3741C0.304925 70.0685 -0.0949947 68.8526 0.0366101 68.7362C0.0921574 68.687 0.265034 68.7323 0.420558 68.8371C0.630197 68.9781 0.692662 68.9653 0.661597 68.7878C0.637242 68.6484 0.527433 68.563 0.398789 68.5831C0.230085 68.6096 0.212323 68.5864 0.323565 68.4855C0.403745 68.4129 0.398629 68.2733 0.312128 68.1755C0.209478 68.0595 0.270535 67.8954 0.488113 67.703C0.692123 67.5225 0.827128 67.1958 0.836398 66.8606C0.844578 66.5592 0.94368 66.2785 1.05661 66.2365C1.16953 66.1945 1.21617 66.1084 1.16039 66.0454C1.10451 65.9822 1.13344 65.8645 1.2246 65.7838C1.32896 65.6915 1.44212 65.7389 1.52972 65.9114C1.64328 66.135 1.75473 66.1258 2.13564 65.8612C2.39231 65.6828 2.57552 65.5083 2.5429 65.4733C2.42034 65.3423 2.07164 65.3057 1.85139 65.4008C1.68988 65.4705 1.67999 65.3513 1.81747 64.992C1.93407 64.6873 2.1103 64.4678 2.25846 64.4428C2.3941 64.4196 2.55806 64.2987 2.62284 64.174C2.70833 64.009 2.76764 64.0195 2.84017 64.2125C2.96251 64.538 3.07816 64.4438 3.17951 63.936C3.22165 63.7246 3.44976 63.2404 3.6863 62.86C4.02787 62.3111 4.16302 62.1821 4.34165 62.2341C4.49017 62.2772 4.52701 62.2533 4.44976 62.1636C4.20001 61.8736 4.81058 61.3917 5.4084 61.4072L5.99405 61.4223L5.81036 61.0753L5.62657 60.7283L5.99355 60.9773C6.26657 61.1624 6.39408 61.1614 6.49178 60.9731C6.57411 60.8143 6.55468 60.7491 6.43956 60.7979C6.33878 60.8406 6.20799 60.821 6.14896 60.7543C6.08993 60.6875 6.13703 60.5975 6.25363 60.5539C6.37021 60.5106 6.49838 60.3613 6.5384 60.2224C6.59112 60.0385 6.52218 60.0472 6.28505 60.2547C6.10591 60.4114 5.912 60.4864 5.85433 60.4212C5.70576 60.2532 6.70885 59.4021 7.03099 59.4227C7.23884 59.436 7.26959 59.4073 7.16883 59.2934C7.07331 59.1854 7.12754 59.1262 7.37593 59.0679C7.87294 58.9512 8.30574 58.5111 8.20013 58.2301C8.12498 58.0304 8.30108 57.8226 9.1394 57.1215C10.1063 56.313 10.1907 56.2722 10.4826 56.4727ZM9.55859 57.6888C9.46858 57.7042 9.39897 57.8311 9.40363 57.9708C9.41039 58.1681 9.52076 58.1125 9.89626 57.7229C10.4342 57.1646 10.4324 57.0943 9.87868 57.0698C9.51949 57.0539 9.5029 57.0717 9.60903 57.3571C9.67134 57.5243 9.64859 57.6737 9.55859 57.6888ZM8.8812 58.3778C8.93887 58.443 9.0423 58.4466 9.11094 58.3859C9.17957 58.3252 9.15586 58.2511 9.0581 58.2213C8.96033 58.1916 8.85701 58.1879 8.82836 58.2132C8.79971 58.2386 8.82353 58.3126 8.8812 58.3778ZM8.05571 59.1079C8.11338 59.1731 8.21363 59.1795 8.27849 59.1222C8.34336 59.0648 8.34924 58.9645 8.29157 58.8993C8.2339 58.8341 8.13365 58.8277 8.06879 58.8851C8.00393 58.9424 7.99804 59.0427 8.05571 59.1079ZM7.5822 60.2134C7.604 60.5106 7.63526 60.5362 7.79905 60.3913C7.91663 60.2874 7.90279 60.1232 7.76313 59.9653C7.63825 59.8241 7.54065 59.7439 7.54626 59.7873C7.55198 59.8309 7.56802 60.0225 7.5822 60.2134ZM3.6835 63.609C3.75367 63.7508 3.78613 63.7521 3.77461 63.6129C3.76472 63.4938 3.8064 63.2921 3.86731 63.1649C3.94495 63.0023 3.91785 63.0011 3.77619 63.161C3.6651 63.2861 3.62353 63.4877 3.6835 63.609ZM2.42304 72.3829C2.52784 72.4355 2.49558 72.3451 2.35141 72.1821C2.20724 72.0191 2.12154 71.9762 2.16091 72.0865C2.20026 72.1971 2.31822 72.3304 2.42304 72.3829ZM6.38013 68.9412C6.50097 69.0044 6.62011 68.9879 6.64489 68.9047C6.66978 68.8217 6.59139 68.7019 6.47077 68.6387C6.34992 68.5755 6.23078 68.5919 6.206 68.6751C6.18112 68.7582 6.25951 68.878 6.38013 68.9412ZM6.11779 71.1749C6.17546 71.2401 6.16958 71.3404 6.10472 71.3977C6.03986 71.4551 5.93961 71.4487 5.88194 71.3835C5.82427 71.3183 5.83016 71.218 5.89502 71.1607C5.95987 71.1033 6.06012 71.1097 6.11779 71.1749ZM26.5864 54.25C26.7195 54.6044 26.7468 54.619 26.9452 54.4435C27.0435 54.3566 27.0289 54.1816 26.9124 54.0499C26.6625 53.7673 26.4531 53.8956 26.5864 54.25ZM22.6852 60.364C22.8063 60.4252 22.8094 60.3724 22.6929 60.2293C22.5875 60.0999 22.4978 60.0545 22.4935 60.1285C22.4891 60.2025 22.5754 60.3086 22.6852 60.364Z" fill="#EEE560"/>
</svg>
