<?xml version="1.0" encoding="utf-8"?>
<!-- Generator: Adobe Illustrator 23.0.3, SVG Export Plug-In . SVG Version: 6.00 Build 0)  -->
<svg version="1.1" id="Layer_1" xmlns="http://www.w3.org/2000/svg" xmlns:xlink="http://www.w3.org/1999/xlink" x="0px" y="0px"
	 viewBox="0 0 1691.4 898.7" style="enable-background:new 0 0 1691.4 898.7;" xml:space="preserve">
<style type="text/css">
	.st0{clip-path:url(#SVGID_2_);}
	.st1{fill:none;stroke:#F9EB21;stroke-width:2;stroke-linecap:round;stroke-linejoin:round;}
</style>
<title>Asset 6</title>
<g>
	<g id="Layer_1-2">
		<g>
			<defs>
				<rect id="SVGID_1_" x="-228.6" y="-127.1" width="1920" height="1608.7"/>
			</defs>
			<clipPath id="SVGID_2_">
				<use xlink:href="#SVGID_1_"  style="overflow:visible;"/>
			</clipPath>
			<g class="st0">
				<path class="st1" d="M1099.8,134.3H935.6c-15.9,0-31,8.5-37.7,22.9c-6.5,13.7-4.6,30,5,41.8l255,316.5L903.2,832
					c-9.4,11.7-12.3,27.8-6.4,41.7c6.2,14.6,20.6,24.1,36.5,24h165.7c12,0,23.4-5.4,31-14.8l275.7-342.5c11.6-14.6,11.6-35.3,0-49.9
					l-275-341.4C1123.2,139.7,1111.8,134.3,1099.8,134.3z"/>
				<path class="st1" d="M653.4,134.3H489.3c-15.9,0-31,8.5-37.7,22.9c-6.5,13.7-4.6,30,5,41.8l255,316.5L456.9,832
					c-9.4,11.7-12.3,27.8-6.4,41.7c6.2,14.6,20.6,24.1,36.5,24h165.7c12,0,23.4-5.4,31-14.8l275.7-342.5c11.6-14.6,11.6-35.3,0-49.9
					l-275-341.4C676.9,139.7,665.5,134.3,653.4,134.3z"/>
				<path class="st1" d="M207,134.3H42.9c-15.9,0-31,8.5-37.7,22.9c-6.5,13.7-4.6,30,5,41.8l255,316.5L10.5,832
					C1,843.7-1.9,859.8,4.1,873.7c6.2,14.6,20.6,24.1,36.5,24h165.7c12,0,23.4-5.4,31-14.8L513,540.4c11.6-14.6,11.6-35.3,0-49.9
					L238,149.1C230.4,139.7,219.1,134.3,207,134.3z"/>
				<path class="st1" d="M1732.4,23.6c-6.5-13.9-20.5-22.7-35.9-22.6h-165.7c-12.1,0-23.5,5.4-31,14.8L1320.2,239
					c-13.8,17.1-11.1,42.1,6,55.9c7.1,5.7,15.9,8.8,25,8.8h165.8c12.1,0,23.5-5.4,31-14.8l179.7-223.2
					C1737.3,53.8,1739.1,37.4,1732.4,23.6z"/>
			</g>
		</g>
	</g>
</g>
</svg>
