<svg xmlns="http://www.w3.org/2000/svg" xmlns:xlink="http://www.w3.org/1999/xlink" viewBox="0 0 1507.15 2260.21"><defs><style>.cls-1,.cls-3,.cls-5{fill:none;}.cls-2{fill:#f9eb21;}.cls-3{stroke:#f9eb21;}.cls-3,.cls-5{stroke-linecap:round;stroke-linejoin:round;stroke-width:2px;}.cls-4{clip-path:url(#clip-path);}.cls-5{stroke:#9100f4;}</style><clipPath id="clip-path"><path class="cls-1" d="M411.33,697.92,27.73,208.27V723.44h0V2231.09h1920V723.44h-1484A66.59,66.59,0,0,1,411.33,697.92Z"/></clipPath></defs><title>Asset 2</title><g id="Layer_2" data-name="Layer 2"><g id="Layer_1-2" data-name="Layer 1"><rect class="cls-2" x="59.27" y="1" width="10.71" height="10.71" transform="translate(129.24 12.71) rotate(-180)"/><path class="cls-3" d="M549.3,792.37,64,172.93a20,20,0,0,1-4.24-12.31V1"/><g class="cls-4"><path class="cls-5" d="M17.14,510.18l277.44,355.1H401.81a36.11,36.11,0,0,1,28.46,13.88L1506.15,2259.21H1308.43L430.58,1132.62a37.13,37.13,0,0,0-29.26-14.27H275.84a36.09,36.09,0,0,1-28.46-13.89L8.66,798.91A36.11,36.11,0,0,1,1,776.68V515.74A9,9,0,0,1,17.14,510.18Z"/></g></g></g></svg>