<svg xmlns="http://www.w3.org/2000/svg" viewBox="0 0 1509.15 1756.51"><defs><style>.cls-1{fill:#f9eb21;}</style></defs><title>Asset 9</title><g id="Layer_2" data-name="Layer 2"><g id="Layer_1-2" data-name="Layer 1"><path class="cls-1" d="M1498,2a9,9,0,0,1,9.12,9.05V272a36.13,36.13,0,0,1-7.66,22.23L1260.77,599.77a36.12,36.12,0,0,1-28.46,13.88H1106.83a37.16,37.16,0,0,0-29.26,14.27L199.72,1754.51H2l1075.87-1380a36.14,36.14,0,0,1,28.46-13.88h107.24L1491,5.49A8.79,8.79,0,0,1,1498,2m0-2a10.72,10.72,0,0,0-8.6,4.26L1212.59,358.59H1106.33a37.87,37.87,0,0,0-30,14.65L.42,1753.28A2,2,0,0,0,2,1756.51H199.72a2,2,0,0,0,1.58-.77L1079.15,629.15a34.9,34.9,0,0,1,27.68-13.5h125.48a37.87,37.87,0,0,0,30-14.65l238.73-305.55a38.29,38.29,0,0,0,8.08-23.46V11.05A11,11,0,0,0,1498,0Z"/></g></g></svg>