<svg width="80" height="80" viewBox="0 0 80 80" fill="none" xmlns="http://www.w3.org/2000/svg">
<path fill-rule="evenodd" clip-rule="evenodd" d="M40 6.66667C21.5905 6.66667 6.66667 21.5905 6.66667 40C6.66667 58.4095 21.5905 73.3333 40 73.3333C58.4095 73.3333 73.3333 58.4095 73.3333 40C73.3333 21.5905 58.4095 6.66667 40 6.66667ZM0 40C0 17.9086 17.9086 0 40 0C62.0914 0 80 17.9086 80 40C80 62.0914 62.0914 80 40 80C17.9086 80 0 62.0914 0 40ZM31.6135 23.1268C33.385 21.9173 35.8191 21.8388 37.7344 23.3943L53.5431 36.2327C55.2046 37.582 55.7794 39.5833 55.7292 41.2308C55.6791 42.8724 54.9826 44.8654 53.182 46.0934L37.3734 56.8754C35.3922 58.2266 33.0623 57.9611 31.4296 56.7425C29.8918 55.5947 29.0656 53.7349 29.0656 51.8105V28.1901C29.0656 26.1855 29.9605 24.2554 31.6135 23.1268ZM35.7323 30.3565V49.9251L48.8291 40.9926L35.7323 30.3565ZM33.617 51.3677C33.6175 51.3674 33.618 51.3671 33.6184 51.3668L33.617 51.3677Z" fill="white"/>
</svg>
