<svg xmlns="http://www.w3.org/2000/svg" viewBox="0 0 567.87 347.26"><defs><style>.cls-1{fill:#f9eb21;}</style></defs><title>Asset 4</title><g id="Layer_2" data-name="Layer 2"><g id="Layer_1-2" data-name="Layer 1"><path class="cls-1" d="M20.6,346.26A19.62,19.62,0,0,1,1,326.67V20.6A19.62,19.62,0,0,1,20.6,1H547.27a19.62,19.62,0,0,1,19.6,19.6V201.89a33.21,33.21,0,0,1-7.31,20.74L470,333.93a32.92,32.92,0,0,1-25.77,12.33Z"/><path class="cls-1" d="M547.27,2a18.6,18.6,0,0,1,18.6,18.6V201.89A32,32,0,0,1,558.78,222L469.2,333.3a32.06,32.06,0,0,1-25,12H20.6A18.59,18.59,0,0,1,2,326.67V20.6A18.6,18.6,0,0,1,20.6,2H547.27m0-2H20.6A20.62,20.62,0,0,0,0,20.6V326.67a20.62,20.62,0,0,0,20.6,20.59H444.21a33.94,33.94,0,0,0,26.55-12.7l89.58-111.3a34.18,34.18,0,0,0,7.53-21.37V20.6A20.62,20.62,0,0,0,547.27,0Z"/></g></g></svg>