<svg xmlns="http://www.w3.org/2000/svg" viewBox="0 0 386.58 104.34"><defs><style>.cls-1{fill:#9100f4;}</style></defs><title>Asset 5</title><g id="Layer_2" data-name="Layer 2"><g id="Layer_1-2" data-name="Layer 1"><path class="cls-1" d="M383.14,20.64c-6.29-6.23-11.45-11-17.75-17.24A11.69,11.69,0,0,0,357.16,0H7.33A7.33,7.33,0,0,0,0,7.33v68.1A11.66,11.66,0,0,0,3.44,83.7c6.29,6.24,11.45,11,17.75,17.24a11.69,11.69,0,0,0,8.23,3.4H379.25A7.33,7.33,0,0,0,386.58,97V28.91A11.68,11.68,0,0,0,383.14,20.64Z"/></g></g></svg>