<svg width="24" height="22" viewBox="0 0 24 22" fill="none" xmlns="http://www.w3.org/2000/svg">
<g clip-path="url(#clip0_112_268)">
<path d="M22.9227 0L12.8534 7.45057L14.7259 3.05974L22.9227 0Z" fill="#E17726"/>
<path d="M0.567507 0.00878906L8.74243 3.06028L10.5204 7.50868L0.567507 0.00878906ZM18.8705 15.8453L23.321 15.93L21.7656 21.2139L16.335 19.7187L18.8705 15.8453ZM4.59607 15.8453L7.12213 19.7187L1.70069 21.2139L0.154732 15.93L4.59607 15.8453Z" fill="#E27625"/>
<path d="M10.2787 6.3756L10.4605 12.2499L5.0182 12.0023L6.56627 9.6668L6.58589 9.64434L10.2787 6.3756ZM13.1316 6.31006L16.8808 9.64453L16.9002 9.66689L18.4483 12.0024L13.0071 12.2499L13.1316 6.31006ZM7.28155 15.8624L10.2532 18.1778L6.80121 19.8444L7.28155 15.8624ZM16.1857 15.862L16.656 19.8445L13.2137 18.1776L16.1857 15.862Z" fill="#E27625"/>
<path d="M13.2896 17.9595L16.7828 19.6509L13.5335 21.1952L13.5672 20.1745L13.2896 17.9595ZM10.176 17.9602L9.90935 20.1579L9.93126 21.194L6.67434 19.6509L10.176 17.9602Z" fill="#D5BFB2"/>
<path d="M9.16731 13.0166L10.0801 14.935L6.97235 14.0245L9.16731 13.0166ZM14.2993 13.0168L16.5046 14.0245L13.3866 14.9347L14.2993 13.0168Z" fill="#233447"/>
<path d="M7.51905 15.8427L7.01671 19.9714L4.32419 15.933L7.51905 15.8427ZM15.9478 15.8428L19.1427 15.933L16.4401 19.9716L15.9478 15.8428ZM18.5269 11.7688L16.2018 14.1385L14.4091 13.3192L13.5508 15.1236L12.9882 12.0208L18.5269 11.7688ZM4.93854 11.7688L10.4784 12.0208L9.91567 15.1236L9.05721 13.3195L7.27402 14.1386L4.93854 11.7688Z" fill="#CC6228"/>
<path d="M4.78188 11.2825L7.41253 13.9519L7.50365 16.5873L4.78188 11.2825ZM18.6874 11.2777L15.9607 16.5919L16.0634 13.9519L18.6874 11.2777ZM10.3498 11.4451L10.4557 12.1115L10.7173 13.7717L10.5491 18.8707L9.75388 14.7745L9.75361 14.7322L10.3498 11.4451ZM13.1155 11.4359L13.7132 14.7322L13.713 14.7745L12.9157 18.8809L12.8842 17.8538L12.7598 13.7415L13.1155 11.4359Z" fill="#E27525"/>
<path d="M16.2972 13.8459L16.2082 16.1355L13.4331 18.2977L12.8721 17.9013L13.5009 14.6623L16.2972 13.8459ZM7.17906 13.8459L9.96564 14.6623L10.5945 17.9013L10.0335 18.2977L7.25826 16.1354L7.17906 13.8459Z" fill="#F5841F"/>
<path d="M6.14332 19.1453L9.69375 20.8276L9.67872 20.1092L9.97581 19.8484H13.4898L13.7976 20.1083L13.7748 20.8261L17.3028 19.1495L15.5861 20.5682L13.5103 21.9939H9.9473L7.87289 20.5623L6.14332 19.1453Z" fill="#C0AC9D"/>
<path d="M13.0354 17.7356L13.5373 18.0902L13.8315 20.4373L13.4058 20.0778H10.0622L9.64452 20.4445L9.92906 18.0904L10.4312 17.7356H13.0354Z" fill="#161616"/>
<path d="M22.2579 0.206238L23.4667 3.8323L22.7118 7.49869L23.2493 7.9133L22.5219 8.46825L23.0687 8.89046L22.3448 9.54964L22.7892 9.87148L21.6098 11.2489L16.7725 9.8404L16.7306 9.81795L13.2448 6.87746L22.2579 0.206238ZM1.20872 0.206238L10.2219 6.87746L6.73603 9.81795L6.69414 9.8404L1.85689 11.2489L0.677508 9.87148L1.12154 9.54991L0.398108 8.89046L0.943708 8.46871L0.205425 7.9122L0.763217 7.49731L0 3.83248L1.20872 0.206238Z" fill="#763E1A"/>
<path d="M16.5359 9.53243L21.6613 11.0247L23.3264 16.1567H18.9334L15.9065 16.1949L18.1078 11.9041L16.5359 9.53243ZM6.93073 9.53243L5.35856 11.9041L7.56011 16.1949L4.53466 16.1567H0.149506L1.80528 11.0248L6.93073 9.53243ZM14.9769 3.03528L13.5433 6.90719L13.239 12.1377L13.1226 13.7771L13.1134 17.9652H10.3532L10.3442 13.785L10.2274 12.1363L9.9231 6.90719L8.48971 3.03528H14.9769Z" fill="#F5841F"/>
</g>
<defs>
<clipPath id="clip0_112_268">
<rect width="23.4667" height="22" fill="white"/>
</clipPath>
</defs>
</svg>
