<svg xmlns="http://www.w3.org/2000/svg" viewBox="0 0 371.32 70.14"><defs><style>.cls-1{fill:#9100f4;}</style></defs><title>Asset 11</title><g id="Layer_2" data-name="Layer 2"><g id="Layer_1-2" data-name="Layer 1"><path class="cls-1" d="M234.23,11.68a3.12,3.12,0,0,0-2.44-1.17H221a3.1,3.1,0,0,0-3,2.4l-5.6,24-7.28-24.23a3.08,3.08,0,0,0-3-2.21H190.22a3.1,3.1,0,0,0-3,2.4L174.77,66.16a3.12,3.12,0,0,0,3,3.82h10.76a3.1,3.1,0,0,0,3-2.4l5.61-24,7.27,24.22a3.09,3.09,0,0,0,3,2.22h11.93a3.09,3.09,0,0,0,3-2.4l12.42-53.26A3.1,3.1,0,0,0,234.23,11.68Z"/><path class="cls-1" d="M259,11.84a3.14,3.14,0,0,0-2.44-1.17H245.76a3.1,3.1,0,0,0-3,2.4L230.31,66.32a3.12,3.12,0,0,0,3,3.82H244.1a3.1,3.1,0,0,0,3-2.4l12.42-53.26A3.1,3.1,0,0,0,259,11.84Z"/><path class="cls-1" d="M16.12,10.43H3.28A3.21,3.21,0,0,0,.33,12.22a3.09,3.09,0,0,0,.39,3.27l20,24.75L.74,65a3.22,3.22,0,0,0-.5,3.26A3.09,3.09,0,0,0,3.1,70.14h13A3.12,3.12,0,0,0,18.48,69L40.05,42.19a3.13,3.13,0,0,0,0-3.9L18.54,11.59A3.09,3.09,0,0,0,16.12,10.43Z"/><path class="cls-1" d="M65.6,1.77A3.08,3.08,0,0,0,62.8,0h-13a3.07,3.07,0,0,0-2.42,1.16L33.35,18.62a3.11,3.11,0,0,0,2.42,5.06h13a3.1,3.1,0,0,0,2.42-1.16L65.22,5.06A3.08,3.08,0,0,0,65.6,1.77Z"/><path class="cls-1" d="M310.42,23.92a3.1,3.1,0,0,0,3-2.4l1.64-7a3.1,3.1,0,0,0-3-3.81H270.74a3.09,3.09,0,0,0-3,2.4L255.3,66.32a3.11,3.11,0,0,0,3,3.82h41.32a3.1,3.1,0,0,0,3-2.4l1.63-7a3.11,3.11,0,0,0-3-3.82h-26.9l2.3-9.86h19.73a3.1,3.1,0,0,0,3-2.4l1.64-7a3.11,3.11,0,0,0-3-3.81H279.78l2.3-9.86Z"/><path class="cls-1" d="M178.69,11.84a3.14,3.14,0,0,0-2.44-1.17H129a3.1,3.1,0,0,0-3,2.4l-9.8,42-2.62,11.24a3.11,3.11,0,0,0,3,3.81h47.22a3.1,3.1,0,0,0,3-2.4l12.42-53.26A3.1,3.1,0,0,0,178.69,11.84ZM152.24,56.89H132.92l7.69-33h19.32Z"/><path class="cls-1" d="M370.65,11.86a3.06,3.06,0,0,0-2.44-1.19H326.33a3.1,3.1,0,0,0-3,2.4l-1.64,7a3.11,3.11,0,0,0,3,3.82h22.05L313.58,56.6a2.37,2.37,0,0,0-.71,1.22l-2,8.5a3.11,3.11,0,0,0,3,3.82h41.3a3.1,3.1,0,0,0,3-2.37l1.72-7a3.13,3.13,0,0,0-.58-2.66,3.07,3.07,0,0,0-2.45-1.19H335.11L368.5,24a2.41,2.41,0,0,0,.7-1.2l2-8.29A3.06,3.06,0,0,0,370.65,11.86Z"/><path class="cls-1" d="M117.48,11.84A3.11,3.11,0,0,0,115,10.67H67.82a3.1,3.1,0,0,0-3,2.4l-9.8,42L52.37,66.33a3.12,3.12,0,0,0,3,3.81h47.23a3.1,3.1,0,0,0,3-2.4l12.41-53.26A3.1,3.1,0,0,0,117.48,11.84ZM98.72,23.92,91,56.89H71.72l7.68-33Z"/></g></g></svg>